<mxfile host="65bd71144e">
    <diagram name="Page-1" id="CssK08dcHLdph9d7XbkA">
        <mxGraphModel dx="1953" dy="1038" grid="0" gridSize="10" guides="1" tooltips="1" connect="1" arrows="1" fold="1" page="1" pageScale="1" pageWidth="827" pageHeight="1169" background="#ffffff" math="0" shadow="0">
            <root>
                <mxCell id="0"/>
                <mxCell id="1" parent="0"/>
                <mxCell id="62" value="" style="group" vertex="1" connectable="0" parent="1">
                    <mxGeometry x="240" y="35" width="440" height="1105" as="geometry"/>
                </mxCell>
                <mxCell id="RspxqE_jWZtG5MPyS7qM-31" value="" style="ellipse;html=1;shape=startState;fillColor=#000000;strokeColor=#FF0000;" parent="62" vertex="1">
                    <mxGeometry x="220" width="30" height="30" as="geometry"/>
                </mxCell>
                <mxCell id="RspxqE_jWZtG5MPyS7qM-32" value="" style="edgeStyle=orthogonalEdgeStyle;html=1;verticalAlign=bottom;endArrow=open;endSize=8;strokeColor=#FF0000;rounded=0;entryX=0.5;entryY=0;entryDx=0;entryDy=0;" parent="62" source="RspxqE_jWZtG5MPyS7qM-31" edge="1" target="RspxqE_jWZtG5MPyS7qM-33">
                    <mxGeometry relative="1" as="geometry">
                        <mxPoint x="235" y="70" as="targetPoint"/>
                    </mxGeometry>
                </mxCell>
                <mxCell id="RspxqE_jWZtG5MPyS7qM-33" value="Visit Website" style="rounded=1;whiteSpace=wrap;html=1;arcSize=40;fontColor=#333333;fillColor=#f5f5f5;strokeColor=#000000;" parent="62" vertex="1">
                    <mxGeometry x="175" y="60" width="120" height="40" as="geometry"/>
                </mxCell>
                <mxCell id="RspxqE_jWZtG5MPyS7qM-34" value="" style="edgeStyle=orthogonalEdgeStyle;html=1;verticalAlign=bottom;endArrow=open;endSize=8;strokeColor=#000000;rounded=0;entryX=0.5;entryY=0.344;entryDx=0;entryDy=0;entryPerimeter=0;" parent="62" source="RspxqE_jWZtG5MPyS7qM-33" edge="1" target="RspxqE_jWZtG5MPyS7qM-35">
                    <mxGeometry relative="1" as="geometry">
                        <mxPoint x="235" y="168" as="targetPoint"/>
                    </mxGeometry>
                </mxCell>
                <mxCell id="58" style="edgeStyle=none;html=1;entryX=0.5;entryY=0;entryDx=0;entryDy=0;strokeColor=#000000;" edge="1" parent="62" target="RspxqE_jWZtG5MPyS7qM-38">
                    <mxGeometry relative="1" as="geometry">
                        <mxPoint x="360" y="135" as="sourcePoint"/>
                    </mxGeometry>
                </mxCell>
                <mxCell id="RspxqE_jWZtG5MPyS7qM-35" value="" style="shape=line;html=1;strokeWidth=6;strokeColor=#000000;" parent="62" vertex="1">
                    <mxGeometry y="120" width="440" height="10" as="geometry"/>
                </mxCell>
                <mxCell id="RspxqE_jWZtG5MPyS7qM-38" value="Enquiry" style="rounded=1;whiteSpace=wrap;html=1;arcSize=40;fontColor=#333333;fillColor=#f5f5f5;strokeColor=#000000;" parent="62" vertex="1">
                    <mxGeometry x="300" y="210" width="120" height="40" as="geometry"/>
                </mxCell>
                <mxCell id="40" value="Open Email Form" style="rounded=1;whiteSpace=wrap;html=1;arcSize=40;fontColor=#333333;fillColor=#f5f5f5;strokeColor=#000000;" vertex="1" parent="62">
                    <mxGeometry x="300" y="370" width="120" height="40" as="geometry"/>
                </mxCell>
                <mxCell id="41" value="" style="edgeStyle=none;html=1;strokeColor=#000000;" edge="1" parent="62" source="RspxqE_jWZtG5MPyS7qM-38" target="40">
                    <mxGeometry relative="1" as="geometry"/>
                </mxCell>
                <mxCell id="45" value="Fill Details" style="rounded=1;whiteSpace=wrap;html=1;arcSize=40;fontColor=#333333;fillColor=#f5f5f5;strokeColor=#000000;" vertex="1" parent="62">
                    <mxGeometry x="300" y="480" width="120" height="40" as="geometry"/>
                </mxCell>
                <mxCell id="46" value="" style="edgeStyle=none;html=1;strokeColor=#000000;" edge="1" parent="62" source="40" target="45">
                    <mxGeometry relative="1" as="geometry"/>
                </mxCell>
                <mxCell id="55" style="edgeStyle=none;html=1;strokeColor=#000000;" edge="1" parent="62" source="47">
                    <mxGeometry relative="1" as="geometry">
                        <mxPoint x="360" y="995" as="targetPoint"/>
                    </mxGeometry>
                </mxCell>
                <mxCell id="47" value="Send Email Notification" style="rounded=1;whiteSpace=wrap;html=1;arcSize=40;fontColor=#333333;fillColor=#f5f5f5;strokeColor=#000000;" vertex="1" parent="62">
                    <mxGeometry x="300" y="585" width="120" height="40" as="geometry"/>
                </mxCell>
                <mxCell id="48" value="" style="edgeStyle=none;html=1;strokeColor=#000000;" edge="1" parent="62" source="45" target="47">
                    <mxGeometry relative="1" as="geometry"/>
                </mxCell>
                <mxCell id="52" value="" style="shape=line;html=1;strokeWidth=6;strokeColor=#000000;" vertex="1" parent="62">
                    <mxGeometry y="995" width="440" height="10" as="geometry"/>
                </mxCell>
                <mxCell id="53" value="" style="edgeStyle=orthogonalEdgeStyle;html=1;verticalAlign=bottom;endArrow=open;endSize=8;strokeColor=#000000;entryX=0.5;entryY=0;entryDx=0;entryDy=0;" edge="1" source="52" parent="62" target="56">
                    <mxGeometry relative="1" as="geometry">
                        <mxPoint x="205" y="1260" as="targetPoint"/>
                    </mxGeometry>
                </mxCell>
                <mxCell id="54" value="" style="edgeStyle=none;html=1;strokeColor=#000000;entryX=0.135;entryY=0.56;entryDx=0;entryDy=0;entryPerimeter=0;" edge="1" parent="62" source="35" target="52">
                    <mxGeometry relative="1" as="geometry"/>
                </mxCell>
                <mxCell id="56" value="" style="ellipse;html=1;shape=endState;fillColor=#000000;strokeColor=#000000;" vertex="1" parent="62">
                    <mxGeometry x="205" y="1075" width="30" height="30" as="geometry"/>
                </mxCell>
                <mxCell id="37" value="Display Error Message" style="whiteSpace=wrap;html=1;fillColor=#f5f5f5;strokeColor=#000000;fontColor=#333333;rounded=1;arcSize=40;" vertex="1" parent="62">
                    <mxGeometry x="140" y="410" width="120" height="40" as="geometry"/>
                </mxCell>
                <mxCell id="38" value="&lt;font style=&quot;background-color: rgb(255, 255, 255);&quot; color=&quot;#000000&quot;&gt;No&lt;/font&gt;" style="edgeStyle=orthogonalEdgeStyle;html=1;verticalAlign=bottom;endArrow=open;endSize=8;strokeColor=#000000;rounded=0;" edge="1" parent="62" source="23" target="37">
                    <mxGeometry relative="1" as="geometry"/>
                </mxCell>
                <mxCell id="RspxqE_jWZtG5MPyS7qM-42" value="Book Car" style="rounded=1;whiteSpace=wrap;html=1;arcSize=40;fontColor=#333333;fillColor=#f5f5f5;strokeColor=#000000;" parent="62" vertex="1">
                    <mxGeometry y="200" width="120" height="40" as="geometry"/>
                </mxCell>
                <mxCell id="57" style="edgeStyle=none;html=1;entryX=0.5;entryY=0;entryDx=0;entryDy=0;strokeColor=#000000;exitX=0.138;exitY=0.4;exitDx=0;exitDy=0;exitPerimeter=0;" edge="1" parent="62" source="RspxqE_jWZtG5MPyS7qM-35" target="RspxqE_jWZtG5MPyS7qM-42">
                    <mxGeometry relative="1" as="geometry"/>
                </mxCell>
                <mxCell id="21" value="Select Car Specification" style="rounded=1;whiteSpace=wrap;html=1;arcSize=40;fontColor=#333333;fillColor=#f5f5f5;strokeColor=#000000;" vertex="1" parent="62">
                    <mxGeometry y="280" width="120" height="40" as="geometry"/>
                </mxCell>
                <mxCell id="51" style="edgeStyle=none;html=1;entryX=1;entryY=0.5;entryDx=0;entryDy=0;strokeColor=#000000;" edge="1" parent="62" source="37" target="21">
                    <mxGeometry relative="1" as="geometry">
                        <Array as="points">
                            <mxPoint x="200" y="300"/>
                        </Array>
                    </mxGeometry>
                </mxCell>
                <mxCell id="22" value="" style="edgeStyle=orthogonalEdgeStyle;html=1;verticalAlign=bottom;endArrow=open;endSize=8;strokeColor=#000000;rounded=0;" edge="1" parent="62" source="RspxqE_jWZtG5MPyS7qM-42" target="21">
                    <mxGeometry relative="1" as="geometry"/>
                </mxCell>
                <mxCell id="23" value="is car available" style="rhombus;whiteSpace=wrap;html=1;fillColor=#f5f5f5;strokeColor=#000000;fontColor=#333333;rounded=1;arcSize=40;" vertex="1" parent="62">
                    <mxGeometry x="20" y="390" width="80" height="80" as="geometry"/>
                </mxCell>
                <mxCell id="24" value="" style="edgeStyle=orthogonalEdgeStyle;html=1;verticalAlign=bottom;endArrow=open;endSize=8;strokeColor=#000000;rounded=0;" edge="1" parent="62" source="21" target="23">
                    <mxGeometry relative="1" as="geometry"/>
                </mxCell>
                <mxCell id="28" value="Record Booking Detail" style="whiteSpace=wrap;html=1;fillColor=#f5f5f5;strokeColor=#000000;fontColor=#333333;rounded=1;arcSize=40;" vertex="1" parent="62">
                    <mxGeometry y="520" width="120" height="60" as="geometry"/>
                </mxCell>
                <mxCell id="29" value="&lt;font style=&quot;background-color: rgb(255, 255, 255);&quot; color=&quot;#000000&quot;&gt;Yes&lt;/font&gt;" style="edgeStyle=orthogonalEdgeStyle;html=1;verticalAlign=bottom;endArrow=open;endSize=8;strokeColor=#000000;rounded=0;" edge="1" parent="62" source="23" target="28">
                    <mxGeometry relative="1" as="geometry"/>
                </mxCell>
                <mxCell id="30" value="Send Booking Amount" style="whiteSpace=wrap;html=1;fillColor=#f5f5f5;strokeColor=#000000;fontColor=#333333;rounded=1;arcSize=40;" vertex="1" parent="62">
                    <mxGeometry y="640" width="120" height="60" as="geometry"/>
                </mxCell>
                <mxCell id="31" value="" style="edgeStyle=orthogonalEdgeStyle;html=1;verticalAlign=bottom;endArrow=open;endSize=8;strokeColor=#000000;rounded=0;" edge="1" parent="62" source="28" target="30">
                    <mxGeometry relative="1" as="geometry"/>
                </mxCell>
                <mxCell id="34" value="&lt;font style=&quot;background-color: rgb(255, 255, 255);&quot; color=&quot;#000000&quot;&gt;No&lt;/font&gt;" style="edgeStyle=orthogonalEdgeStyle;html=1;verticalAlign=bottom;endArrow=open;endSize=8;strokeColor=#000000;rounded=0;exitX=1;exitY=0.5;exitDx=0;exitDy=0;" edge="1" parent="62" source="32" target="30">
                    <mxGeometry relative="1" as="geometry">
                        <Array as="points">
                            <mxPoint x="180" y="790"/>
                            <mxPoint x="180" y="670"/>
                        </Array>
                    </mxGeometry>
                </mxCell>
                <mxCell id="32" value="is amount valid" style="rhombus;whiteSpace=wrap;html=1;fillColor=#f5f5f5;strokeColor=#000000;fontColor=#333333;rounded=1;arcSize=40;" vertex="1" parent="62">
                    <mxGeometry x="20" y="750" width="80" height="80" as="geometry"/>
                </mxCell>
                <mxCell id="33" value="" style="edgeStyle=orthogonalEdgeStyle;html=1;verticalAlign=bottom;endArrow=open;endSize=8;strokeColor=#000000;rounded=0;" edge="1" parent="62" source="30" target="32">
                    <mxGeometry relative="1" as="geometry"/>
                </mxCell>
                <mxCell id="35" value="Send Email" style="whiteSpace=wrap;html=1;fillColor=#f5f5f5;strokeColor=#000000;fontColor=#333333;rounded=1;arcSize=40;" vertex="1" parent="62">
                    <mxGeometry y="880" width="120" height="60" as="geometry"/>
                </mxCell>
                <mxCell id="36" value="&lt;font style=&quot;background-color: rgb(247, 247, 247);&quot; color=&quot;#000000&quot;&gt;Yes&lt;/font&gt;" style="edgeStyle=orthogonalEdgeStyle;html=1;verticalAlign=bottom;endArrow=open;endSize=8;strokeColor=#000000;rounded=0;" edge="1" parent="62" source="32" target="35">
                    <mxGeometry relative="1" as="geometry"/>
                </mxCell>
            </root>
        </mxGraphModel>
    </diagram>
</mxfile>